<mxfile host="app.diagrams.net" agent="Mozilla/5.0 (Windows NT 10.0; Win64; x64) AppleWebKit/537.36 (KHTML, like Gecko) Chrome/132.0.0.0 Safari/537.36 OPR/117.0.0.0" version="26.2.3">
  <diagram name="Página-1" id="H9VBGHDVPDVQSCkjBvCk">
    <mxGraphModel dx="955" dy="516" grid="1" gridSize="10" guides="1" tooltips="1" connect="1" arrows="1" fold="1" page="1" pageScale="1" pageWidth="827" pageHeight="1169" math="0" shadow="0">
      <root>
        <mxCell id="0" />
        <mxCell id="1" parent="0" />
        <mxCell id="76VaS_JAK7G0t5CUO3CG-1" value="Tem" style="rhombus;whiteSpace=wrap;html=1;" vertex="1" parent="1">
          <mxGeometry x="334" y="180" width="80" height="80" as="geometry" />
        </mxCell>
        <mxCell id="76VaS_JAK7G0t5CUO3CG-2" value="Banco" style="rounded=0;whiteSpace=wrap;html=1;" vertex="1" parent="1">
          <mxGeometry x="90" y="190" width="120" height="60" as="geometry" />
        </mxCell>
        <mxCell id="76VaS_JAK7G0t5CUO3CG-3" value="vlr.pago" style="ellipse;whiteSpace=wrap;html=1;" vertex="1" parent="1">
          <mxGeometry x="180" y="340" width="90" height="50" as="geometry" />
        </mxCell>
        <mxCell id="76VaS_JAK7G0t5CUO3CG-4" value="Contas" style="rounded=0;whiteSpace=wrap;html=1;" vertex="1" parent="1">
          <mxGeometry x="314" y="430" width="120" height="60" as="geometry" />
        </mxCell>
        <mxCell id="76VaS_JAK7G0t5CUO3CG-5" value="dt.agendamento" style="ellipse;whiteSpace=wrap;html=1;" vertex="1" parent="1">
          <mxGeometry x="140" y="420" width="90" height="50" as="geometry" />
        </mxCell>
        <mxCell id="76VaS_JAK7G0t5CUO3CG-6" value="vlr.conta" style="ellipse;whiteSpace=wrap;html=1;" vertex="1" parent="1">
          <mxGeometry x="160" y="500" width="90" height="50" as="geometry" />
        </mxCell>
        <mxCell id="76VaS_JAK7G0t5CUO3CG-7" value="dt.venc." style="ellipse;whiteSpace=wrap;html=1;" vertex="1" parent="1">
          <mxGeometry x="270" y="550" width="90" height="50" as="geometry" />
        </mxCell>
        <mxCell id="76VaS_JAK7G0t5CUO3CG-9" value="vlr.juros" style="ellipse;whiteSpace=wrap;html=1;" vertex="1" parent="1">
          <mxGeometry x="420" y="550" width="90" height="50" as="geometry" />
        </mxCell>
        <mxCell id="76VaS_JAK7G0t5CUO3CG-11" value="dt.pagamento" style="ellipse;whiteSpace=wrap;html=1;" vertex="1" parent="1">
          <mxGeometry x="520" y="490" width="90" height="50" as="geometry" />
        </mxCell>
        <mxCell id="76VaS_JAK7G0t5CUO3CG-12" value="comprovante pg." style="ellipse;whiteSpace=wrap;html=1;" vertex="1" parent="1">
          <mxGeometry x="520" y="410" width="90" height="50" as="geometry" />
        </mxCell>
        <mxCell id="76VaS_JAK7G0t5CUO3CG-14" value="comprov.agend." style="ellipse;whiteSpace=wrap;html=1;" vertex="1" parent="1">
          <mxGeometry x="470" y="320" width="90" height="50" as="geometry" />
        </mxCell>
        <mxCell id="76VaS_JAK7G0t5CUO3CG-19" value="" style="endArrow=none;html=1;rounded=0;exitX=1;exitY=0.5;exitDx=0;exitDy=0;entryX=0;entryY=0.5;entryDx=0;entryDy=0;" edge="1" parent="1" source="76VaS_JAK7G0t5CUO3CG-2" target="76VaS_JAK7G0t5CUO3CG-1">
          <mxGeometry width="50" height="50" relative="1" as="geometry">
            <mxPoint x="420" y="240" as="sourcePoint" />
            <mxPoint x="470" y="190" as="targetPoint" />
          </mxGeometry>
        </mxCell>
        <mxCell id="76VaS_JAK7G0t5CUO3CG-21" value="" style="endArrow=none;html=1;rounded=0;entryX=0.5;entryY=1;entryDx=0;entryDy=0;exitX=0.5;exitY=0;exitDx=0;exitDy=0;" edge="1" parent="1" source="76VaS_JAK7G0t5CUO3CG-4" target="76VaS_JAK7G0t5CUO3CG-1">
          <mxGeometry width="50" height="50" relative="1" as="geometry">
            <mxPoint x="420" y="340" as="sourcePoint" />
            <mxPoint x="470" y="290" as="targetPoint" />
          </mxGeometry>
        </mxCell>
        <mxCell id="76VaS_JAK7G0t5CUO3CG-22" value="" style="endArrow=none;html=1;rounded=0;exitX=1;exitY=0;exitDx=0;exitDy=0;" edge="1" parent="1" source="76VaS_JAK7G0t5CUO3CG-4" target="76VaS_JAK7G0t5CUO3CG-14">
          <mxGeometry width="50" height="50" relative="1" as="geometry">
            <mxPoint x="420" y="440" as="sourcePoint" />
            <mxPoint x="470" y="390" as="targetPoint" />
          </mxGeometry>
        </mxCell>
        <mxCell id="76VaS_JAK7G0t5CUO3CG-23" value="" style="endArrow=none;html=1;rounded=0;exitX=1;exitY=0.5;exitDx=0;exitDy=0;entryX=0;entryY=0.5;entryDx=0;entryDy=0;" edge="1" parent="1" source="76VaS_JAK7G0t5CUO3CG-4" target="76VaS_JAK7G0t5CUO3CG-12">
          <mxGeometry width="50" height="50" relative="1" as="geometry">
            <mxPoint x="444" y="440" as="sourcePoint" />
            <mxPoint x="504" y="377" as="targetPoint" />
          </mxGeometry>
        </mxCell>
        <mxCell id="76VaS_JAK7G0t5CUO3CG-24" value="" style="endArrow=none;html=1;rounded=0;exitX=1;exitY=1;exitDx=0;exitDy=0;entryX=0.067;entryY=0.22;entryDx=0;entryDy=0;entryPerimeter=0;" edge="1" parent="1" source="76VaS_JAK7G0t5CUO3CG-4" target="76VaS_JAK7G0t5CUO3CG-11">
          <mxGeometry width="50" height="50" relative="1" as="geometry">
            <mxPoint x="454" y="450" as="sourcePoint" />
            <mxPoint x="514" y="387" as="targetPoint" />
          </mxGeometry>
        </mxCell>
        <mxCell id="76VaS_JAK7G0t5CUO3CG-25" value="" style="endArrow=none;html=1;rounded=0;exitX=0.351;exitY=-0.036;exitDx=0;exitDy=0;exitPerimeter=0;entryX=0.75;entryY=1;entryDx=0;entryDy=0;" edge="1" parent="1" source="76VaS_JAK7G0t5CUO3CG-9" target="76VaS_JAK7G0t5CUO3CG-4">
          <mxGeometry width="50" height="50" relative="1" as="geometry">
            <mxPoint x="464" y="460" as="sourcePoint" />
            <mxPoint x="524" y="397" as="targetPoint" />
          </mxGeometry>
        </mxCell>
        <mxCell id="76VaS_JAK7G0t5CUO3CG-26" value="" style="endArrow=none;html=1;rounded=0;entryX=0.25;entryY=1;entryDx=0;entryDy=0;" edge="1" parent="1" source="76VaS_JAK7G0t5CUO3CG-7" target="76VaS_JAK7G0t5CUO3CG-4">
          <mxGeometry width="50" height="50" relative="1" as="geometry">
            <mxPoint x="474" y="470" as="sourcePoint" />
            <mxPoint x="534" y="407" as="targetPoint" />
          </mxGeometry>
        </mxCell>
        <mxCell id="76VaS_JAK7G0t5CUO3CG-27" value="" style="endArrow=none;html=1;rounded=0;exitX=1;exitY=0.34;exitDx=0;exitDy=0;exitPerimeter=0;entryX=0.013;entryY=0.637;entryDx=0;entryDy=0;entryPerimeter=0;" edge="1" parent="1" source="76VaS_JAK7G0t5CUO3CG-6" target="76VaS_JAK7G0t5CUO3CG-4">
          <mxGeometry width="50" height="50" relative="1" as="geometry">
            <mxPoint x="484" y="480" as="sourcePoint" />
            <mxPoint x="310" y="470" as="targetPoint" />
          </mxGeometry>
        </mxCell>
        <mxCell id="76VaS_JAK7G0t5CUO3CG-28" value="" style="endArrow=none;html=1;rounded=0;exitX=1;exitY=0.5;exitDx=0;exitDy=0;entryX=0;entryY=0.25;entryDx=0;entryDy=0;" edge="1" parent="1" source="76VaS_JAK7G0t5CUO3CG-5" target="76VaS_JAK7G0t5CUO3CG-4">
          <mxGeometry width="50" height="50" relative="1" as="geometry">
            <mxPoint x="494" y="490" as="sourcePoint" />
            <mxPoint x="554" y="427" as="targetPoint" />
          </mxGeometry>
        </mxCell>
        <mxCell id="76VaS_JAK7G0t5CUO3CG-29" value="" style="endArrow=none;html=1;rounded=0;exitX=1.027;exitY=0.676;exitDx=0;exitDy=0;exitPerimeter=0;entryX=0.193;entryY=0.037;entryDx=0;entryDy=0;entryPerimeter=0;" edge="1" parent="1" source="76VaS_JAK7G0t5CUO3CG-3" target="76VaS_JAK7G0t5CUO3CG-4">
          <mxGeometry width="50" height="50" relative="1" as="geometry">
            <mxPoint x="504" y="500" as="sourcePoint" />
            <mxPoint x="564" y="437" as="targetPoint" />
          </mxGeometry>
        </mxCell>
        <mxCell id="76VaS_JAK7G0t5CUO3CG-30" value="d" style="ellipse;whiteSpace=wrap;html=1;aspect=fixed;" vertex="1" parent="1">
          <mxGeometry x="360" y="680" width="60" height="60" as="geometry" />
        </mxCell>
        <mxCell id="76VaS_JAK7G0t5CUO3CG-31" value="" style="endArrow=none;html=1;rounded=0;exitX=0.5;exitY=0;exitDx=0;exitDy=0;entryX=0.5;entryY=1;entryDx=0;entryDy=0;" edge="1" parent="1" source="76VaS_JAK7G0t5CUO3CG-30" target="76VaS_JAK7G0t5CUO3CG-4">
          <mxGeometry width="50" height="50" relative="1" as="geometry">
            <mxPoint x="420" y="640" as="sourcePoint" />
            <mxPoint x="470" y="590" as="targetPoint" />
          </mxGeometry>
        </mxCell>
        <mxCell id="76VaS_JAK7G0t5CUO3CG-32" value="num_banco" style="ellipse;whiteSpace=wrap;html=1;" vertex="1" parent="1">
          <mxGeometry x="40" y="100" width="90" height="50" as="geometry" />
        </mxCell>
        <mxCell id="76VaS_JAK7G0t5CUO3CG-33" value="" style="endArrow=none;html=1;rounded=0;entryX=0.609;entryY=0.98;entryDx=0;entryDy=0;entryPerimeter=0;exitX=0.25;exitY=0;exitDx=0;exitDy=0;" edge="1" parent="1" source="76VaS_JAK7G0t5CUO3CG-2" target="76VaS_JAK7G0t5CUO3CG-32">
          <mxGeometry width="50" height="50" relative="1" as="geometry">
            <mxPoint x="420" y="340" as="sourcePoint" />
            <mxPoint x="470" y="290" as="targetPoint" />
          </mxGeometry>
        </mxCell>
        <mxCell id="76VaS_JAK7G0t5CUO3CG-34" value="Cartão" style="rounded=0;whiteSpace=wrap;html=1;" vertex="1" parent="1">
          <mxGeometry x="510" y="770" width="120" height="60" as="geometry" />
        </mxCell>
        <mxCell id="76VaS_JAK7G0t5CUO3CG-35" value="" style="endArrow=none;html=1;rounded=0;exitX=1;exitY=1;exitDx=0;exitDy=0;entryX=0;entryY=0;entryDx=0;entryDy=0;" edge="1" parent="1" source="76VaS_JAK7G0t5CUO3CG-30" target="76VaS_JAK7G0t5CUO3CG-34">
          <mxGeometry width="50" height="50" relative="1" as="geometry">
            <mxPoint x="420" y="740" as="sourcePoint" />
            <mxPoint x="470" y="690" as="targetPoint" />
          </mxGeometry>
        </mxCell>
        <mxCell id="76VaS_JAK7G0t5CUO3CG-36" value="" style="endArrow=none;html=1;rounded=0;entryX=0.5;entryY=0;entryDx=0;entryDy=0;exitX=0.5;exitY=1;exitDx=0;exitDy=0;" edge="1" parent="1" source="76VaS_JAK7G0t5CUO3CG-38" target="76VaS_JAK7G0t5CUO3CG-34">
          <mxGeometry width="50" height="50" relative="1" as="geometry">
            <mxPoint x="570" y="700" as="sourcePoint" />
            <mxPoint x="470" y="690" as="targetPoint" />
          </mxGeometry>
        </mxCell>
        <mxCell id="76VaS_JAK7G0t5CUO3CG-38" value="parcelas" style="ellipse;whiteSpace=wrap;html=1;" vertex="1" parent="1">
          <mxGeometry x="550" y="640" width="90" height="50" as="geometry" />
        </mxCell>
        <mxCell id="76VaS_JAK7G0t5CUO3CG-39" value="pag.mínimo" style="ellipse;whiteSpace=wrap;html=1;" vertex="1" parent="1">
          <mxGeometry x="690" y="750" width="90" height="50" as="geometry" />
        </mxCell>
        <mxCell id="76VaS_JAK7G0t5CUO3CG-40" value="" style="endArrow=none;html=1;rounded=0;entryX=0.018;entryY=0.652;entryDx=0;entryDy=0;entryPerimeter=0;exitX=1;exitY=0.25;exitDx=0;exitDy=0;" edge="1" parent="1" source="76VaS_JAK7G0t5CUO3CG-34" target="76VaS_JAK7G0t5CUO3CG-39">
          <mxGeometry width="50" height="50" relative="1" as="geometry">
            <mxPoint x="420" y="840" as="sourcePoint" />
            <mxPoint x="470" y="790" as="targetPoint" />
          </mxGeometry>
        </mxCell>
        <mxCell id="76VaS_JAK7G0t5CUO3CG-41" value="Juros Rotatórios" style="ellipse;whiteSpace=wrap;html=1;" vertex="1" parent="1">
          <mxGeometry x="670" y="870" width="90" height="50" as="geometry" />
        </mxCell>
        <mxCell id="76VaS_JAK7G0t5CUO3CG-42" value="" style="endArrow=none;html=1;rounded=0;exitX=0.75;exitY=1;exitDx=0;exitDy=0;" edge="1" parent="1" source="76VaS_JAK7G0t5CUO3CG-34" target="76VaS_JAK7G0t5CUO3CG-41">
          <mxGeometry width="50" height="50" relative="1" as="geometry">
            <mxPoint x="420" y="840" as="sourcePoint" />
            <mxPoint x="470" y="790" as="targetPoint" />
          </mxGeometry>
        </mxCell>
        <mxCell id="76VaS_JAK7G0t5CUO3CG-43" value="Boleto" style="rounded=0;whiteSpace=wrap;html=1;" vertex="1" parent="1">
          <mxGeometry x="140" y="770" width="120" height="60" as="geometry" />
        </mxCell>
        <mxCell id="76VaS_JAK7G0t5CUO3CG-44" value="" style="endArrow=none;html=1;rounded=0;exitX=1;exitY=0;exitDx=0;exitDy=0;entryX=0.047;entryY=0.71;entryDx=0;entryDy=0;entryPerimeter=0;" edge="1" parent="1" source="76VaS_JAK7G0t5CUO3CG-43" target="76VaS_JAK7G0t5CUO3CG-30">
          <mxGeometry width="50" height="50" relative="1" as="geometry">
            <mxPoint x="420" y="840" as="sourcePoint" />
            <mxPoint x="470" y="790" as="targetPoint" />
          </mxGeometry>
        </mxCell>
        <mxCell id="76VaS_JAK7G0t5CUO3CG-45" value="nome" style="ellipse;whiteSpace=wrap;html=1;" vertex="1" parent="1">
          <mxGeometry y="270" width="90" height="50" as="geometry" />
        </mxCell>
        <mxCell id="76VaS_JAK7G0t5CUO3CG-46" value="" style="endArrow=none;html=1;rounded=0;exitX=0.642;exitY=0.048;exitDx=0;exitDy=0;exitPerimeter=0;entryX=0;entryY=1;entryDx=0;entryDy=0;" edge="1" parent="1" source="76VaS_JAK7G0t5CUO3CG-45" target="76VaS_JAK7G0t5CUO3CG-2">
          <mxGeometry width="50" height="50" relative="1" as="geometry">
            <mxPoint x="450" y="390" as="sourcePoint" />
            <mxPoint x="500" y="340" as="targetPoint" />
          </mxGeometry>
        </mxCell>
        <mxCell id="76VaS_JAK7G0t5CUO3CG-47" value="cvc" style="ellipse;whiteSpace=wrap;html=1;" vertex="1" parent="1">
          <mxGeometry x="480" y="880" width="90" height="50" as="geometry" />
        </mxCell>
        <mxCell id="76VaS_JAK7G0t5CUO3CG-48" value="" style="endArrow=none;html=1;rounded=0;exitX=0.379;exitY=0.069;exitDx=0;exitDy=0;exitPerimeter=0;entryX=0.079;entryY=1.065;entryDx=0;entryDy=0;entryPerimeter=0;" edge="1" parent="1" source="76VaS_JAK7G0t5CUO3CG-47" target="76VaS_JAK7G0t5CUO3CG-34">
          <mxGeometry width="50" height="50" relative="1" as="geometry">
            <mxPoint x="505.02" y="888.8499999999999" as="sourcePoint" />
            <mxPoint x="500" y="820" as="targetPoint" />
          </mxGeometry>
        </mxCell>
        <mxCell id="76VaS_JAK7G0t5CUO3CG-50" value="Validade" style="ellipse;whiteSpace=wrap;html=1;" vertex="1" parent="1">
          <mxGeometry x="590" y="940" width="90" height="50" as="geometry" />
        </mxCell>
        <mxCell id="76VaS_JAK7G0t5CUO3CG-51" value="" style="endArrow=none;html=1;rounded=0;entryX=0.587;entryY=1.014;entryDx=0;entryDy=0;entryPerimeter=0;exitX=0.402;exitY=-0.05;exitDx=0;exitDy=0;exitPerimeter=0;" edge="1" parent="1" source="76VaS_JAK7G0t5CUO3CG-50" target="76VaS_JAK7G0t5CUO3CG-34">
          <mxGeometry width="50" height="50" relative="1" as="geometry">
            <mxPoint x="450" y="860" as="sourcePoint" />
            <mxPoint x="500" y="810" as="targetPoint" />
          </mxGeometry>
        </mxCell>
        <mxCell id="76VaS_JAK7G0t5CUO3CG-52" value="" style="endArrow=none;html=1;rounded=0;exitX=0.064;exitY=1.052;exitDx=0;exitDy=0;exitPerimeter=0;" edge="1" parent="1" source="76VaS_JAK7G0t5CUO3CG-43" target="76VaS_JAK7G0t5CUO3CG-53">
          <mxGeometry width="50" height="50" relative="1" as="geometry">
            <mxPoint x="450" y="860" as="sourcePoint" />
            <mxPoint x="500" y="810" as="targetPoint" />
          </mxGeometry>
        </mxCell>
        <mxCell id="76VaS_JAK7G0t5CUO3CG-53" value="Emissor" style="ellipse;whiteSpace=wrap;html=1;" vertex="1" parent="1">
          <mxGeometry x="10" y="900" width="90" height="50" as="geometry" />
        </mxCell>
        <mxCell id="76VaS_JAK7G0t5CUO3CG-54" value="Código" style="ellipse;whiteSpace=wrap;html=1;" vertex="1" parent="1">
          <mxGeometry x="160" y="920" width="90" height="50" as="geometry" />
        </mxCell>
        <mxCell id="76VaS_JAK7G0t5CUO3CG-55" value="" style="endArrow=none;html=1;rounded=0;exitX=0.5;exitY=0;exitDx=0;exitDy=0;entryX=0.5;entryY=1;entryDx=0;entryDy=0;" edge="1" parent="1" source="76VaS_JAK7G0t5CUO3CG-54" target="76VaS_JAK7G0t5CUO3CG-43">
          <mxGeometry width="50" height="50" relative="1" as="geometry">
            <mxPoint x="450" y="860" as="sourcePoint" />
            <mxPoint x="500" y="810" as="targetPoint" />
          </mxGeometry>
        </mxCell>
      </root>
    </mxGraphModel>
  </diagram>
</mxfile>
